<?xml version="1.0" encoding="iso-8859-1"?>
<!-- Generator: Adobe Illustrator 19.0.0, SVG Export Plug-In . SVG Version: 6.00 Build 0)  -->
<svg version="1.1" id="Capa_1" xmlns="http://www.w3.org/2000/svg" xmlns:xlink="http://www.w3.org/1999/xlink" x="0px" y="0px"
	 viewBox="0 0 511.001 511.001" style="enable-background:new 0 0 511.001 511.001;" xml:space="preserve">
<path d="M351,95.501c0-52.63-42.795-95.453-95.415-95.499c-0.017,0-0.033-0.001-0.05-0.001C255.524,0.001,255.512,0,255.5,0
	c-0.012,0-0.025,0.001-0.037,0.001c-0.016,0-0.031,0.001-0.047,0.001C202.796,0.048,160,42.871,160,95.501
	c0,40.592,18.63,82.509,36.646,123.046c16.537,37.209,33.597,75.621,35.216,111.483c-4.688,2.669-7.863,7.702-7.863,13.471v120
	c0,6.616,4.174,12.261,10.022,14.481c-1.296,2.912-2.022,6.131-2.022,9.519c0,12.958,10.542,23.5,23.5,23.5s23.5-10.542,23.5-23.5
	c0-3.387-0.726-6.607-2.022-9.519c5.847-2.22,10.022-7.865,10.022-14.481v-120c0-5.769-3.175-10.803-7.863-13.471
	c1.619-35.862,18.679-74.274,35.216-111.483C332.371,178.01,351,136.093,351,95.501z M272,343.501v120c0,0.276-0.224,0.5-0.5,0.5
	h-32c-0.276,0-0.5-0.224-0.5-0.5v-120c0-0.276,0.224-0.5,0.5-0.5h32C271.776,343.001,272,343.225,272,343.501z M262.236,214.598
	c-2.418,19.948-4.877,40.237-6.736,60.452c-1.859-20.215-4.318-40.504-6.736-60.452C243.964,174.997,239,134.047,239,95.5
	c0-21.579,2.177-42.114,6.129-57.823c4.157-16.521,8.81-21.86,10.371-22.626c1.562,0.766,6.214,6.104,10.371,22.626
	C269.823,53.385,272,73.921,272,95.5C272,134.047,267.037,174.997,262.236,214.598z M233.567,23.899
	c-0.797,2.303-1.555,4.77-2.273,7.402C226.59,48.547,224,71.347,224,95.5c0,39.453,5.019,80.859,9.873,120.902
	c0.865,7.14,1.735,14.325,2.582,21.531c-2.226-8.197-4.534-16.364-6.828-24.474C218.503,174.129,207,133.46,207,95.5
	c0-22.097,5.409-42.766,15.229-58.199C225.671,31.894,229.489,27.402,233.567,23.899z M274.545,237.936
	c0.846-7.207,1.716-14.393,2.582-21.534C281.981,176.359,287,134.953,287,95.5c0-24.153-2.59-46.953-7.294-64.199
	c-0.718-2.633-1.476-5.1-2.273-7.403c4.079,3.503,7.897,7.996,11.338,13.404C298.592,52.734,304,73.403,304,95.5
	c0,37.96-11.502,78.629-22.626,117.959C279.08,221.571,276.772,229.738,274.545,237.936z M175,95.501
	c0-27.235,13.608-51.337,34.368-65.911C198.169,47.359,192,70.743,192,95.5c0,40.04,11.79,81.727,23.192,122.041
	c1.538,5.439,3.083,10.905,4.604,16.385c-3.098-7.19-6.279-14.352-9.443-21.471C192.973,173.348,175,132.909,175,95.501z
	 M255.5,496.001c-4.687,0-8.5-3.813-8.5-8.5s3.813-8.5,8.5-8.5s8.5,3.813,8.5,8.5S260.188,496.001,255.5,496.001z M291.203,233.93
	c1.522-5.481,3.067-10.948,4.605-16.388C307.21,177.228,319,135.541,319,95.5c0-24.758-6.169-48.142-17.368-65.91
	C322.393,44.164,336,68.266,336,95.501c0,37.408-17.973,77.847-35.354,116.954C297.482,219.575,294.301,226.739,291.203,233.93z"/>
<g>
</g>
<g>
</g>
<g>
</g>
<g>
</g>
<g>
</g>
<g>
</g>
<g>
</g>
<g>
</g>
<g>
</g>
<g>
</g>
<g>
</g>
<g>
</g>
<g>
</g>
<g>
</g>
<g>
</g>
</svg>
